<?xml version="1.0" standalone="no"?>
<!DOCTYPE svg PUBLIC "-//W3C//DTD SVG 20010904//EN"
 "http://www.w3.org/TR/2001/REC-SVG-20010904/DTD/svg10.dtd">
<svg version="1.0" xmlns="http://www.w3.org/2000/svg"
 width="800.000000pt" height="450.000000pt" viewBox="0 0 800.000000 450.000000"
 preserveAspectRatio="xMidYMid meet">

<g transform="translate(0.000000,450.000000) scale(0.100000,-0.100000)"
fill="#000000" stroke="none">
<path d="M3655 3940 c-593 -63 -1113 -482 -1289 -1038 -54 -171 -69 -273 -70
-467 0 -205 20 -331 81 -510 147 -425 502 -780 928 -928 390 -134 794 -112
1160 63 96 46 245 139 293 183 l23 21 352 -351 c194 -193 362 -356 374 -362
31 -16 89 -14 124 4 62 32 89 130 53 185 -9 14 -172 181 -361 371 l-345 346
52 69 c133 177 221 380 271 624 25 125 30 376 10 505 -115 724 -718 1262
-1444 1289 -73 2 -168 1 -212 -4z m379 -285 c239 -46 455 -157 630 -325 182
-174 306 -388 361 -626 37 -158 37 -390 0 -548 -104 -448 -454 -812 -893 -930
-51 -14 -144 -30 -207 -37 -235 -26 -499 29 -715 148 -301 166 -527 460 -610
791 -141 565 134 1157 657 1416 100 50 216 90 318 110 98 19 360 20 459 1z"/>
<path d="M3280 2895 c0 -3 9 -14 20 -25 16 -16 20 -33 20 -86 0 -51 -5 -72
-20 -91 -12 -16 -20 -41 -20 -64 l0 -39 -80 0 -80 0 0 -45 c0 -41 2 -45 25
-45 l25 0 0 -120 c0 -108 2 -120 18 -120 10 0 26 15 36 35 10 19 34 45 52 57
27 19 35 32 39 68 4 25 7 52 8 60 2 12 27 15 145 18 l142 3 0 -31 0 -30 -120
0 c-113 0 -120 -1 -120 -20 0 -16 7 -20 38 -20 46 0 109 -29 142 -64 14 -15
36 -51 50 -79 l25 -52 163 -3 162 -2 0 85 0 85 -97 0 -98 0 1 90 c0 82 3 92
27 120 15 16 33 27 41 24 8 -3 21 4 29 17 l16 21 30 -21 c20 -14 32 -18 36
-10 9 13 10 12 -92 83 -46 32 -88 54 -94 50 -7 -4 -1 -15 17 -30 23 -18 27
-25 17 -35 -7 -7 -13 -25 -13 -40 0 -27 -34 -79 -52 -79 -5 0 -24 7 -41 15
-22 10 -74 15 -167 17 l-135 3 -3 47 c-2 25 -10 52 -18 58 -10 9 -14 35 -14
94 0 50 -5 87 -12 94 -12 12 -48 17 -48 7z"/>
<path d="M4136 2658 c-8 -13 -26 -62 -41 -110 l-27 -88 -119 0 c-107 0 -119
-2 -129 -19 -25 -48 -18 -51 110 -51 l121 0 -24 -42 c-18 -32 -22 -51 -17 -73
4 -16 5 -42 2 -56 -2 -14 2 -32 10 -40 8 -8 29 -36 47 -62 18 -27 35 -46 38
-43 3 3 31 -8 62 -24 36 -19 59 -26 65 -20 6 6 36 10 68 10 32 0 58 4 58 8 0
4 25 21 55 36 30 16 52 33 49 38 -3 5 5 28 19 51 21 37 23 51 19 119 -2 43 -7
76 -11 74 -4 -3 -22 20 -40 50 -18 30 -36 52 -41 49 -5 -3 -29 4 -52 16 -35
18 -57 22 -118 20 -51 -2 -81 -7 -92 -18 -23 -20 -23 -25 12 87 23 72 27 96
17 102 -19 12 -25 10 -41 -14z m205 -271 c123 -82 65 -257 -86 -257 -145 0
-196 185 -72 260 45 28 115 26 158 -3z"/>
<path d="M3341 2357 c-107 -41 -143 -165 -75 -255 38 -49 77 -65 149 -60 78 5
125 37 150 102 20 53 15 98 -18 147 -42 63 -135 92 -206 66z"/>
</g>
</svg>
